<svg xmlns="http://www.w3.org/2000/svg" viewBox="0 0 24 24">
  <title>indent-in</title>
  <path d="m1.450824,3.5l21.098352,0a1.455059,1 0 0 0 0,-2l-21.098352,0a1.455059,1 0 0 0 0,2z"/>
  <path d="m7.407742,7.71553l15.521788,0a1.070469,1 0 0 0 0,-2l-15.521788,0a1.070469,1 0 0 0 0,2z"/>
  <path d="m22.933558,10.7l-15.524806,0a1.070676,1 0 0 0 0,2l15.524806,0a1.070676,1 0 0 0 0,-2z"/>
  <path d="m7.399368,17.7l15.529618,0a1.071012,1 0 0 0 0,-2l-15.529618,0a1.071012,1 0 0 0 0,2z"/>
  <path d="m22.549176,20.5l-21.09835,0a1.455059,1 0 0 0 0,2l21.09835,0a1.455059,1 0 0 0 0,-2z"/>
  <path d="m-2.800275,14.38614l0,-5.585587l5.612689,5.585587l-5.612689,0z" transform="rotate(-134.77349853515625 0.00606942083686565,11.59334659576416)"/>
</svg>
